#N canvas -13 -13 2736 1660 10;
#X obj 175 185 comport 7 9600;
#X msg 127 111 devices;
#X msg 313 105 close;
#X msg 223 107 open 7;
#X obj 178 256 sel 13 10;
#X obj 179 308 zl group 100;
#X obj 181 354 iem_alisttosym;
#X obj 181 404 fromsymbol;
#X obj 181 454 unpack f f;
#X floatatom 181 545 5 0 0 0 - - -;
#X floatatom 244 541 5 0 0 0 - - -;
#X obj 416 861 osc~ 783.99;
#X obj 537 951 osc~ 233.08;
#X obj 311 788 osc~ 698.46;
#X obj 149 884 osc~ 116.54;
#X obj 80 981 osc~ 932.33;
#X floatatom 184 668 5 0 0 0 - - -;
#X obj 893 679 osc~ 146.83;
#X obj 1162 679 osc~ 73.42;
#X obj 1033 660 osc~ 880;
#X obj 807 833 osc~ 698.46;
#X obj 1189 787 osc~ 1174.66;
#X obj 1115 755 *~ 1.5;
#X obj 948 728 *~ 1.2;
#X obj 297 1425 dac~;
#X obj 316 1231 *~;
#X floatatom 514 631 5 0 0 0 - - -;
#X obj 1016 1395 dac~;
#X obj 1009 1264 *~;
#X obj 1366 243 *~ 1.5;
#X obj 1206 442 *~;
#X obj 1201 516 dac~;
#X obj 1499 272 osc~ 1174.66;
#X obj 1406 206 osc~ 73.42;
#X obj 1047 255 osc~ 272;
#X obj 1175 186 osc~ 344;
#X obj 1328 196 osc~ 880;
#X obj 1815 460 dac~;
#X obj 1635 273 osc~ 311.127;
#X obj 1729 235 osc~ 391.995;
#X obj 1841 197 osc~ 440;
#X obj 1928 177 osc~ 554.365;
#X obj 1953 243 osc~ 77.78;
#X obj 1973 322 osc~ 196;
#X obj 1893 300 *~ 1.5;
#X obj 1817 416 *~ 0.05;
#X obj 1205 478 *~ 0.001;
#X obj 383 592 / 400;
#X obj 1013 1295 *~ 0.05;
#X obj 303 1337 *~ 0.05;
#X obj 183 607 / 200;
#X connect 0 0 4 0;
#X connect 1 0 0 0;
#X connect 2 0 0 0;
#X connect 3 0 0 0;
#X connect 4 0 5 0;
#X connect 4 2 5 0;
#X connect 5 0 6 0;
#X connect 6 0 7 0;
#X connect 7 0 8 0;
#X connect 8 0 9 0;
#X connect 8 1 10 0;
#X connect 9 0 50 0;
#X connect 10 0 47 0;
#X connect 11 0 25 0;
#X connect 12 0 25 0;
#X connect 13 0 25 0;
#X connect 14 0 25 0;
#X connect 15 0 25 0;
#X connect 16 0 25 1;
#X connect 17 0 23 0;
#X connect 18 0 22 0;
#X connect 19 0 28 0;
#X connect 20 0 28 0;
#X connect 21 0 28 0;
#X connect 22 0 28 0;
#X connect 23 0 28 0;
#X connect 25 0 49 0;
#X connect 26 0 28 1;
#X connect 28 0 48 0;
#X connect 29 0 30 0;
#X connect 30 0 46 0;
#X connect 32 0 30 0;
#X connect 33 0 29 0;
#X connect 34 0 30 0;
#X connect 35 0 30 0;
#X connect 36 0 30 0;
#X connect 38 0 45 0;
#X connect 39 0 45 0;
#X connect 40 0 45 0;
#X connect 41 0 45 0;
#X connect 42 0 44 0;
#X connect 43 0 45 0;
#X connect 44 0 45 0;
#X connect 45 0 37 0;
#X connect 45 0 37 1;
#X connect 46 0 31 0;
#X connect 46 0 31 1;
#X connect 47 0 26 0;
#X connect 48 0 27 0;
#X connect 48 0 27 1;
#X connect 49 0 24 0;
#X connect 49 0 24 1;
#X connect 50 0 16 0;
#X coords 0 0 6 1 0 0 0;
